<svg xmlns="http://www.w3.org/2000/svg" version="1.1" width="512px" height="512px" style="shape-rendering:geometricPrecision; text-rendering:geometricPrecision; image-rendering:optimizeQuality; fill-rule:evenodd; clip-rule:evenodd" xmlns:xlink="http://www.w3.org/1999/xlink">
<g><path style="opacity:0.987" fill="#000000" d="M 292.5,41.5 C 338.835,41.3333 385.168,41.5 431.5,42C 452.667,45.8333 465.167,58.3333 469,79.5C 469.667,111.5 469.667,143.5 469,175.5C 468.142,183.748 465.142,191.081 460,197.5C 428.667,228.833 397.333,260.167 366,291.5C 372.034,265.701 378.868,240.035 386.5,214.5C 353.466,213.965 320.466,213.131 287.5,212C 272.177,208.01 262.01,198.51 257,183.5C 255.359,147.547 255.026,111.547 256,75.5C 260.988,56.3424 273.154,45.0091 292.5,41.5 Z"/></g>
<g><path style="opacity:0.985" fill="#000000" d="M 162.5,148.5 C 190.288,146.794 207.121,159.461 213,186.5C 213.667,225.5 213.667,264.5 213,303.5C 208.381,327.117 194.047,339.784 170,341.5C 148.039,339.869 134.039,328.536 128,307.5C 127.333,265.5 127.333,223.5 128,181.5C 133.222,163.775 144.722,152.775 162.5,148.5 Z"/></g>
<g><path style="opacity:0.971" fill="#000000" d="M 41.5,297.5 C 56.1667,297.5 70.8333,297.5 85.5,297.5C 86.5912,334.076 103.591,360.243 136.5,376C 177.978,390.731 212.478,380.897 240,346.5C 249.595,331.717 254.761,315.551 255.5,298C 269.829,297.5 284.163,297.333 298.5,297.5C 296.197,355.939 268.197,396.439 214.5,419C 207.039,421.766 199.372,423.6 191.5,424.5C 191.5,439.5 191.5,454.5 191.5,469.5C 177.167,469.5 162.833,469.5 148.5,469.5C 148.5,454.5 148.5,439.5 148.5,424.5C 101.553,415.269 68.7192,388.602 50,344.5C 44.5779,329.301 41.7446,313.634 41.5,297.5 Z"/></g>
</svg>
